<svg width="151" height="11" viewBox="0 0 151 11" fill="none" xmlns="http://www.w3.org/2000/svg">
<path d="M110.749 10.151C107.9 10.3472 105.536 10.4453 103.658 10.4453C102.406 10.4453 101.486 10.2197 100.898 9.76854C100.31 9.31738 100.016 8.61123 100.016 7.65006V2.94233C100.016 1.91252 100.316 1.16713 100.917 0.70616C101.53 0.235387 102.508 0 103.849 0H110.749V2.05963H104.616C103.849 2.05963 103.466 2.35387 103.466 2.94233V7.65006C103.466 7.87564 103.549 8.05709 103.715 8.1944C103.894 8.3219 104.118 8.38565 104.386 8.38565C104.654 8.38565 104.948 8.38565 105.268 8.38565C105.587 8.37584 105.919 8.36603 106.264 8.35622C106.609 8.34642 106.954 8.33661 107.299 8.3268C107.657 8.31699 108.111 8.29738 108.66 8.26795C109.222 8.23853 109.919 8.2042 110.749 8.16497V10.151Z" fill="#232323"/>
<path d="M121.197 10.2982H117.46L122.539 0H126.372L131.451 10.2982H127.714L126.851 8.4592H122.06L121.197 10.2982ZM122.922 6.54669H125.989L124.455 3.08945L122.922 6.54669Z" fill="#232323"/>
<path d="M138.925 0H146.975C148.317 0 149.288 0.235387 149.888 0.70616C150.502 1.16713 150.808 1.91252 150.808 2.94233V4.26638C150.808 5.08043 150.629 5.71303 150.272 6.16419C149.927 6.61534 149.371 6.91448 148.604 7.0616L151 10.2982H147.263L145.058 7.20871H142.375V10.2982H138.925V0ZM147.358 2.94233C147.358 2.35387 146.975 2.05963 146.208 2.05963H142.375V5.14908H146.208C146.975 5.14908 147.358 4.85485 147.358 4.26638V2.94233Z" fill="#232323"/>
<path d="M0.172497 8.16497C3.67354 8.31208 6.04377 8.38564 7.28319 8.38564C7.57708 8.38564 7.80707 8.32189 7.97318 8.19439C8.15207 8.05708 8.24151 7.87564 8.24151 7.65006V6.32601H3.83326C2.49162 6.32601 1.51414 6.09553 0.900816 5.63456C0.300272 5.16379 0 4.4135 0 3.38368V2.94233C0 1.91252 0.300272 1.16712 0.900816 0.70616C1.51414 0.235387 2.49162 0 3.83326 0H10.5606V2.05963H4.59991C3.83326 2.05963 3.44993 2.35387 3.44993 2.94233V3.23656C3.44993 3.82503 3.83326 4.11926 4.59991 4.11926H8.04984C9.30204 4.11926 10.222 4.34484 10.8098 4.796C11.3976 5.24716 11.6914 5.95332 11.6914 6.91448V7.65006C11.6914 8.61122 11.3976 9.31738 10.8098 9.76854C10.222 10.2197 9.30204 10.4453 8.04984 10.4453C7.39819 10.4453 6.7082 10.4355 5.97988 10.4159L4.21659 10.357C2.91328 10.308 1.56525 10.2393 0.172497 10.151V8.16497Z" fill="#232323"/>
<path d="M28.5563 0H32.0062V7.50294C32.0062 8.53276 31.6996 9.28305 31.0862 9.75383C30.4857 10.2148 29.5146 10.4453 28.173 10.4453H23.7647C22.4231 10.4453 21.4456 10.2148 20.8323 9.75383C20.2317 9.28305 19.9315 8.53276 19.9315 7.50294V0H23.3814V7.50294C23.3814 8.09141 23.7647 8.38564 24.5314 8.38564H27.4063C28.173 8.38564 28.5563 8.09141 28.5563 7.50294V0Z" fill="#232323"/>
<path d="M40.8227 0H48.8726C50.2142 0 51.1853 0.235387 51.7858 0.70616C52.3992 1.16712 52.7058 1.91252 52.7058 2.94233V4.4135C52.7058 5.44331 52.3992 6.19361 51.7858 6.66438C51.1853 7.12534 50.2142 7.35583 48.8726 7.35583H44.2727V10.2982H40.8227V0ZM49.2559 2.94233C49.2559 2.35387 48.8726 2.05963 48.1059 2.05963H44.2727V5.2962H48.1059C48.8726 5.2962 49.2559 5.00196 49.2559 4.4135V2.94233Z" fill="#232323"/>
<path d="M71.5839 10.2982H60.9466V0H71.5839V2.05963H64.3965V4.04571H70.0506V6.10534H64.3965V8.23853H71.5839V10.2982Z" fill="#232323"/>
<path d="M79.6292 0H87.6791C89.0207 0 89.9918 0.235387 90.5923 0.70616C91.2057 1.16712 91.5123 1.91252 91.5123 2.94233V4.26638C91.5123 5.08042 91.3335 5.71303 90.9757 6.16418C90.6307 6.61534 90.0749 6.91448 89.3082 7.06159L91.704 10.2982H87.9666L85.7624 7.20871H83.0792V10.2982H79.6292V0ZM88.0624 2.94233C88.0624 2.35387 87.6791 2.05963 86.9124 2.05963H83.0792V5.14908H86.9124C87.6791 5.14908 88.0624 4.85485 88.0624 4.26638V2.94233Z" fill="#232323"/>
</svg>
