<svg width="193" height="10" viewBox="0 0 193 10" fill="none" xmlns="http://www.w3.org/2000/svg">
<path d="M141.068 9.37432C137.438 9.55546 134.427 9.64604 132.035 9.64604C130.44 9.64604 129.268 9.43772 128.519 9.02108C127.771 8.60444 127.396 7.95232 127.396 7.0647V2.71719C127.396 1.76618 127.779 1.07782 128.544 0.652127C129.325 0.217376 130.57 0 132.279 0H141.068V1.90204H133.256C132.279 1.90204 131.791 2.17375 131.791 2.71719V7.0647C131.791 7.27302 131.897 7.44058 132.108 7.56738C132.336 7.68513 132.621 7.744 132.963 7.744C133.304 7.744 133.679 7.744 134.086 7.744C134.493 7.73494 134.916 7.72588 135.355 7.71683C135.795 7.70777 136.234 7.69871 136.673 7.68966C137.129 7.6806 137.707 7.66248 138.407 7.63531C139.123 7.60814 140.01 7.57644 141.068 7.54021V9.37432Z" fill="#232323"/>
<path d="M154.376 9.51018H149.615L156.085 0H160.967L167.437 9.51018H162.676L161.578 7.81193H155.474L154.376 9.51018ZM156.573 6.04575H160.479L158.526 2.85305L156.573 6.04575Z" fill="#232323"/>
<path d="M176.957 0H187.211C188.919 0 190.156 0.217376 190.921 0.652127C191.703 1.07782 192.093 1.76618 192.093 2.71719V3.93993C192.093 4.69169 191.865 5.27588 191.41 5.69252C190.97 6.10916 190.262 6.3854 189.286 6.52126L192.337 9.51018H187.577L184.769 6.65712H181.351V9.51018H176.957V0ZM187.699 2.71719C187.699 2.17375 187.211 1.90204 186.234 1.90204H181.351V4.75509H186.234C187.211 4.75509 187.699 4.48337 187.699 3.93993V2.71719Z" fill="#232323"/>
<path d="M0.219718 7.54021C4.67919 7.67607 7.69828 7.744 9.277 7.744C9.65133 7.744 9.94429 7.68512 10.1559 7.56738C10.3837 7.44058 10.4977 7.27302 10.4977 7.0647V5.84196H4.88263C3.17371 5.84196 1.92864 5.62912 1.14742 5.20342C0.382473 4.76867 0 4.07579 0 3.12477V2.71719C0 1.76618 0.382473 1.07782 1.14742 0.652127C1.92864 0.217376 3.17371 0 4.88263 0H13.4516V1.90203H5.85916C4.88263 1.90203 4.39437 2.17375 4.39437 2.71719V2.98891C4.39437 3.53235 4.88263 3.80407 5.85916 3.80407H10.2535C11.8485 3.80407 13.0203 4.01239 13.769 4.42902C14.5177 4.84566 14.892 5.49779 14.892 6.3854V7.0647C14.892 7.95232 14.5177 8.60444 13.769 9.02108C13.0203 9.43771 11.8485 9.64603 10.2535 9.64603C9.42348 9.64603 8.5446 9.63697 7.6169 9.61886L5.37089 9.56452C3.7108 9.51923 1.99374 9.45583 0.219718 9.37431V7.54021Z" fill="#232323"/>
<path d="M36.3737 0H40.7681V6.92884C40.7681 7.87986 40.3774 8.57274 39.5962 9.00749C38.8313 9.43318 37.5943 9.64603 35.8854 9.64603H30.2704C28.5615 9.64603 27.3164 9.43318 26.5352 9.00749C25.7702 8.57274 25.3878 7.87986 25.3878 6.92884V0H29.7821V6.92884C29.7821 7.47228 30.2704 7.744 31.2469 7.744H34.9089C35.8854 7.744 36.3737 7.47228 36.3737 6.92884V0Z" fill="#232323"/>
<path d="M51.9981 0H62.2516C63.9605 0 65.1975 0.217376 65.9624 0.652127C66.7436 1.07782 67.1342 1.76618 67.1342 2.71719V4.07579C67.1342 5.02681 66.7436 5.71969 65.9624 6.15444C65.1975 6.58013 63.9605 6.79298 62.2516 6.79298H56.3925V9.51017H51.9981V0ZM62.7399 2.71719C62.7399 2.17375 62.2516 1.90203 61.2751 1.90203H56.3925V4.89095H61.2751C62.2516 4.89095 62.7399 4.61923 62.7399 4.07579V2.71719Z" fill="#232323"/>
<path d="M91.1802 9.51017H77.631V0H91.1802V1.90203H82.0253V3.73614H89.2272V5.63817H82.0253V7.60814H91.1802V9.51017Z" fill="#232323"/>
<path d="M101.428 0H111.682C113.39 0 114.627 0.217376 115.392 0.652127C116.174 1.07782 116.564 1.76618 116.564 2.71719V3.93993C116.564 4.69169 116.336 5.27588 115.881 5.69252C115.441 6.10915 114.733 6.3854 113.757 6.52126L116.808 9.51017H112.048L109.24 6.65712H105.822V9.51017H101.428V0ZM112.17 2.71719C112.17 2.17375 111.682 1.90203 110.705 1.90203H105.822V4.75509H110.705C111.682 4.75509 112.17 4.48337 112.17 3.93993V2.71719Z" fill="#232323"/>
</svg>
