<svg width="33" height="28" viewBox="0 0 33 28" fill="none" xmlns="http://www.w3.org/2000/svg">
<path d="M31.35 12.25H1.65C1.21239 12.25 0.792709 12.4344 0.483274 12.7626C0.173839 13.0908 0 13.5359 0 14C0 14.4641 0.173839 14.9092 0.483274 15.2374C0.792709 15.5656 1.21239 15.75 1.65 15.75H31.35C31.7876 15.75 32.2073 15.5656 32.5167 15.2374C32.8262 14.9092 33 14.4641 33 14C33 13.5359 32.8262 13.0908 32.5167 12.7626C32.2073 12.4344 31.7876 12.25 31.35 12.25ZM31.35 24.5H1.65C1.21239 24.5 0.792709 24.6844 0.483274 25.0126C0.173839 25.3408 0 25.7859 0 26.25C0 26.7141 0.173839 27.1592 0.483274 27.4874C0.792709 27.8156 1.21239 28 1.65 28H31.35C31.7876 28 32.2073 27.8156 32.5167 27.4874C32.8262 27.1592 33 26.7141 33 26.25C33 25.7859 32.8262 25.3408 32.5167 25.0126C32.2073 24.6844 31.7876 24.5 31.35 24.5ZM31.35 0H1.65C1.21239 0 0.792709 0.184374 0.483274 0.512562C0.173839 0.84075 0 1.28587 0 1.75C0 2.21413 0.173839 2.65925 0.483274 2.98744C0.792709 3.31562 1.21239 3.5 1.65 3.5H31.35C31.7876 3.5 32.2073 3.31562 32.5167 2.98744C32.8262 2.65925 33 2.21413 33 1.75C33 1.28587 32.8262 0.84075 32.5167 0.512562C32.2073 0.184374 31.7876 0 31.35 0Z" fill="black"/>
</svg>
